<?xml version="1.0" encoding="UTF-8"?>
<!-- Generator: visioncortex VTracer -->
<svg id="svg" version="1.1" xmlns="http://www.w3.org/2000/svg" style="display: block;" viewBox="0 0 70 70"><path d="M0 0 C23.1 0 46.2 0 70 0 C70 23.1 70 46.2 70 70 C46.9 70 23.8 70 0 70 C0 46.9 0 23.8 0 0 Z " transform="translate(0,0)" style="fill: #090909;"/><path d="M0 0 C8.25 0 16.5 0 25 0 C25 1.98 25 3.96 25 6 C24.34 6 23.68 6 23 6 C23 4.68 23 3.36 23 2 C18.05 2 13.1 2 8 2 C8 5.63 8 9.26 8 13 C11.63 13 15.26 13 19 13 C19 11.68 19 10.36 19 9 C19.66 9 20.32 9 21 9 C21 12.3 21 15.6 21 19 C20.34 19 19.68 19 19 19 C19 17.68 19 16.36 19 15 C15.37 15 11.74 15 8 15 C8 19.62 8 24.24 8 29 C12.95 29 17.9 29 23 29 C23 27.68 23 26.36 23 25 C23.66 25 24.32 25 25 25 C25 26.98 25 28.96 25 31 C16.75 31 8.5 31 0 31 C0 30.34 0 29.68 0 29 C1.32 29 2.64 29 4 29 C4 20.09 4 11.18 4 2 C2.68 2 1.36 2 0 2 C0 1.34 0 0.68 0 0 Z " transform="translate(36,16)" style="fill: #FEFEFE;"/><path d="M0 0 C0.639375 0.33 1.27875 0.66 1.9375 1 C1.9375 3.31 1.9375 5.62 1.9375 8 C1.2775 8 0.6175 8 -0.0625 8 C-0.7225 6.35 -1.3825 4.7 -2.0625 3 C-3.51885371 2.77825067 -4.97772956 2.57301302 -6.4375 2.375 C-7.65566406 2.20097656 -7.65566406 2.20097656 -8.8984375 2.0234375 C-9.61257812 2.01570313 -10.32671875 2.00796875 -11.0625 2 C-13.47371859 3.95633975 -13.47371859 3.95633975 -13.1875 7.625 C-13.14625 8.73875 -13.105 9.8525 -13.0625 11 C-12.39863281 11.18175781 -11.73476562 11.36351562 -11.05078125 11.55078125 C-5.28962931 13.1908172 -0.39075445 14.67174555 3.9375 19 C4.44906434 22.83673259 4.24251126 24.52670667 2.125 27.8125 C-1.19218323 31.12968323 -3.99965487 31.15696849 -8.5 31.1875 C-9.92119141 31.20876953 -9.92119141 31.20876953 -11.37109375 31.23046875 C-14.10751644 30.99614518 -15.72678123 30.39701383 -18.0625 29 C-18.0625 26.69 -18.0625 24.38 -18.0625 22 C-17.4025 22 -16.7425 22 -16.0625 22 C-15.629375 23.2065625 -15.629375 23.2065625 -15.1875 24.4375 C-14.32987432 27.1326468 -14.32987432 27.1326468 -12.0625 28 C-7.82278942 28.23553948 -4.70071698 28.32845886 -1.0625 26 C-1.0625 24.35 -1.0625 22.7 -1.0625 21 C-1.91521484 20.63648438 -1.91521484 20.63648438 -2.78515625 20.265625 C-4.39617169 19.56635286 -6.00005342 18.85048904 -7.59765625 18.12109375 C-9.11100487 17.43277195 -10.63782187 16.77220221 -12.18359375 16.16015625 C-14.0625 15.3125 -14.0625 15.3125 -17.0625 13 C-18.2133006 9.93308805 -18.49197364 7.24491194 -18.0625 4 C-13.61002931 -2.14133889 -6.81210643 -2.22436128 0 0 Z " transform="translate(27.0625,16)" style="fill: #ECECEC;"/><path d="M0 0 C0.66 0 1.32 0 2 0 C2.28875 0.804375 2.5775 1.60875 2.875 2.4375 C3.73262568 5.1326468 3.73262568 5.1326468 6 6 C6 6.66 6 7.32 6 8 C6.66 8.33 7.32 8.66 8 9 C1.125 8.125 1.125 8.125 0 7 C-0.04092937 4.66702567 -0.04241723 2.33294775 0 0 Z " transform="translate(9,38)" style="fill: #E3E3E3;"/><path d="M0 0 C1.45823212 -0.0270043 2.91660675 -0.04639787 4.375 -0.0625 C5.18710937 -0.07410156 5.99921875 -0.08570313 6.8359375 -0.09765625 C9 0 9 0 11 1 C11 3.31 11 5.62 11 8 C10.34 8 9.68 8 9 8 C8.7215625 6.824375 8.7215625 6.824375 8.4375 5.625 C7.16038373 2.60623658 7.16038373 2.60623658 3.375 1.6875 C2.26125 1.460625 1.1475 1.23375 0 1 C0 0.67 0 0.34 0 0 Z " transform="translate(18,16)" style="fill: #F4F4F4;"/></svg>